<svg xmlns="http://www.w3.org/2000/svg" viewBox="0 0 366.66 304.88"><defs><style>.a,.c{fill:#fff;}.b,.l,.m,.n,.o{fill:none;}.b,.h{stroke:#8ea3b1;stroke-linecap:round;}.b,.c,.h,.m,.n,.o{stroke-miterlimit:10;}.c,.m,.n,.o{stroke:#fff;}.c,.f,.l,.m,.n,.o{stroke-width:2px;}.d{fill:#d3ecf4;}.e{fill:#4eb4e6;}.f{fill:#f1f2f2;}.f,.l{stroke:#44566b;stroke-linejoin:round;}.g{fill:#4182c4;}.h{fill:#6d6e71;}.i{fill:#637b91;}.j{fill:#414042;}.k{fill:#aed8ef;}.m,.n,.o{stroke-linecap:square;}.n{stroke-dasharray:2.03 4.07 2.03 4.07;}.o{stroke-dasharray:2.03 4.07 2.03 4.07 2.03 4.07;}</style></defs><rect class="a" width="365.65" height="304.88"/><polyline class="b" points="196.16 16.09 355.06 16.09 355.06 110.94 261.21 110.94"/><polygon class="c" points="189.15 16.89 24.17 274.46 348.71 274.46 189.15 16.89"/><polygon class="d" points="304.93 203.41 68.83 203.41 52 231.41 321.01 231.41 304.93 203.41"/><polygon class="e" points="269.84 147.85 105.52 147.93 87.48 175.85 286.68 176.02 269.84 147.85"/><polygon class="f" points="327.13 240.26 46.46 240.26 26.47 271.46 346.42 271.46 327.13 240.26"/><polygon class="g" points="252.99 120.95 121.42 120.76 104.01 148.76 270.23 148.76 252.99 120.95"/><line class="h" x1="9.99" y1="265.5" x2="168.48" y2="18.96"/><rect class="a" x="35.81" y="122.34" width="91.14" height="33.45" transform="matrix(0.53, -0.85, 0.85, 0.53, -79.69, 135.01)"/><polygon class="i" points="189.76 17.91 131.01 109.63 246.58 109.63 189.76 17.91"/><rect class="a" x="306.48" y="47.15" width="52.91" height="33.45"/><path class="a" d="M129.42,131.12h2.77a1.82,1.82,0,0,1,2,2c0,1-.46,1.79-1.31,1.92v0c.78.08,1.18.51,1.23,1.61,0,.51,0,1.12,0,1.59a.81.81,0,0,0,.38.69h-1.42a1.35,1.35,0,0,1-.21-.7c-.05-.47,0-.91-.06-1.48,0-.86-.28-1.23-1.14-1.23h-1V139h-1.26Zm2.26,3.5a1.16,1.16,0,0,0,1.25-1.28c0-.83-.36-1.27-1.19-1.27h-1.06v2.55Z"/><path class="a" d="M139.14,137.74c0,.22.13.42.3.42a.53.53,0,0,0,.2,0v.77a1.5,1.5,0,0,1-.58.14c-.53,0-1-.21-1-.78h0a1.53,1.53,0,0,1-1.47.87c-.95,0-1.54-.53-1.54-1.66a1.62,1.62,0,0,1,1.38-1.86l.92-.25c.43-.12.69-.24.69-.76s-.18-.88-.81-.88c-.79,0-.9.56-.9,1.13h-1.13c0-1.25.52-1.95,2.08-1.95,1.05,0,1.89.41,1.89,1.46ZM138,135.85a7.66,7.66,0,0,1-1.32.55,1,1,0,0,0-.48,1c0,.49.24.89.74.89.71,0,1.06-.54,1.06-1.41Z"/><path class="a" d="M140.34,133.06h1.13v.69h0a1.7,1.7,0,0,1,1.52-.85c.9,0,1.47.41,1.47,1.61V139H143.3v-4.06c0-.77-.23-1.07-.82-1.07s-.95.38-.95,1.15v4h-1.19Z"/><path class="a" d="M148.66,138.25h0a1.26,1.26,0,0,1-1.3.88c-1.39,0-1.94-1.15-1.94-3.19,0-2.63.93-3,1.83-3a1.37,1.37,0,0,1,1.34.85h0v-2.63h1.19V139h-1.12Zm-1.08-4.4c-.68,0-.92.55-.92,2.15,0,1.34.17,2.18,1,2.18s1-.83,1-2.1C148.66,134.66,148.5,133.85,147.58,133.85Z"/><path class="a" d="M152.9,132.9c1.72,0,2.21,1.28,2.21,3.12s-.56,3.11-2.21,3.11-2.2-1.28-2.2-3.11S151.18,132.9,152.9,132.9Zm0,5.35c.86,0,1-.73,1-2.23,0-1.31-.16-2.24-1-2.24s-1,.93-1,2.24C151.88,137.52,152,138.25,152.9,138.25Z"/><path class="a" d="M156.07,133.06h1.13v.69h0a1.66,1.66,0,0,1,1.42-.85,1.27,1.27,0,0,1,1.37.91,1.61,1.61,0,0,1,1.5-.91c.84,0,1.44.43,1.44,1.58V139h-1.19v-4.06c0-.77-.23-1.07-.71-1.07s-.95.38-.95,1.15v4h-1.19v-4.06c0-.77-.23-1.07-.72-1.07s-.94.38-.94,1.15v4h-1.19Z"/><path class="a" d="M164.21,131h1.19v1.19h-1.19Zm0,2h1.19V139h-1.19Z"/><path class="a" d="M166.3,138.05l2.59-4h-2.43v-1h3.77v1L167.74,138h2.49v1H166.3Z"/><path class="a" d="M172.1,136.17v.34c0,.79.1,1.81,1,1.81s.95-1,.95-1.32h1.12a2,2,0,0,1-2.08,2.13c-1,0-2.17-.29-2.17-3,0-1.55.33-3.2,2.19-3.2,1.65,0,2.09,1,2.09,2.64v.63Zm1.9-.81V135c0-.75-.24-1.32-.91-1.32s-1,.75-1,1.52v.12Z"/><path class="a" d="M179.2,138.25h0a1.26,1.26,0,0,1-1.3.88c-1.38,0-1.93-1.15-1.93-3.19,0-2.63.92-3,1.82-3a1.39,1.39,0,0,1,1.35.85h0v-2.63h1.19V139H179.2Zm-1.08-4.4c-.69,0-.93.55-.93,2.15,0,1.34.18,2.18,1,2.18s1-.83,1-2.1C179.2,134.66,179,133.85,178.12,133.85Z"/><path class="a" d="M188.09,136.82c-.07,1.42-.56,2.31-2,2.31-1.72,0-2.2-1.28-2.2-3.11s.48-3.12,2.2-3.12a1.91,1.91,0,0,1,2,2.13h-1.18c0-.55-.16-1.27-.85-1.25-.86,0-1,.93-1,2.24s.15,2.23,1,2.23c.66,0,.9-.54.9-1.43Z"/><path class="a" d="M191,132.9c1.73,0,2.21,1.28,2.21,3.12s-.56,3.11-2.21,3.11-2.2-1.28-2.2-3.11S189.24,132.9,191,132.9Zm0,5.35c.87,0,1-.73,1-2.23,0-1.31-.16-2.24-1-2.24s-1,.93-1,2.24C189.94,137.52,190.1,138.25,191,138.25Z"/><path class="a" d="M194.08,133.06h1.12v.69h0a1.7,1.7,0,0,1,1.52-.85c.9,0,1.47.41,1.47,1.61V139H197v-4.06c0-.77-.23-1.07-.83-1.07s-1,.38-1,1.15v4h-1.18Z"/><path class="a" d="M198.84,133.06h.81v-1.69h1.19v1.69h1v.88h-1v3.53c0,.46.13.63.54.63a2.33,2.33,0,0,0,.43,0v.88a3.72,3.72,0,0,1-1,.1c-.8,0-1.2-.22-1.2-1.43v-3.67h-.81Z"/><path class="a" d="M202.43,133.06h1.18V134h0A1.46,1.46,0,0,1,205,132.9a1,1,0,0,1,.29,0v1.21a2.37,2.37,0,0,0-.5-.07c-.54,0-1.19.24-1.19,1.34V139h-1.18Z"/><path class="a" d="M207.86,132.9c1.73,0,2.21,1.28,2.21,3.12s-.56,3.11-2.21,3.11-2.2-1.28-2.2-3.11S206.14,132.9,207.86,132.9Zm0,5.35c.87,0,1-.73,1-2.23,0-1.31-.15-2.24-1-2.24s-1,.93-1,2.24C206.85,137.52,207,138.25,207.86,138.25Z"/><path class="a" d="M211,131.12h1.19V139H211Z"/><path class="a" d="M213.48,131.12h1.19V139h-1.19Z"/><path class="a" d="M216.89,136.17v.34c0,.79.1,1.81,1,1.81s.94-1,.94-1.32H220a2,2,0,0,1-2.08,2.13c-1,0-2.17-.29-2.17-3,0-1.55.33-3.2,2.19-3.2,1.65,0,2.09,1,2.09,2.64v.63Zm1.9-.81V135c0-.75-.24-1.32-.91-1.32s-1,.75-1,1.52v.12Z"/><path class="a" d="M224,138.25h0a1.26,1.26,0,0,1-1.3.88c-1.38,0-1.93-1.15-1.93-3.19,0-2.63.92-3,1.82-3a1.39,1.39,0,0,1,1.35.85h0v-2.63h1.19V139H224Zm-1.07-4.4c-.69,0-.93.55-.93,2.15,0,1.34.18,2.18,1,2.18s1-.83,1-2.1C224,134.66,223.82,133.85,222.91,133.85Z"/><path class="a" d="M228.36,133.06h.82v-1.69h1.18v1.69h1v.88h-1v3.53c0,.46.14.63.54.63a2.33,2.33,0,0,0,.43,0v.88a3.72,3.72,0,0,1-1,.1c-.8,0-1.19-.22-1.19-1.43v-3.67h-.82Z"/><path class="a" d="M232,133.06h1.19V134h0a1.46,1.46,0,0,1,1.37-1.08,1,1,0,0,1,.29,0v1.21a2.37,2.37,0,0,0-.5-.07c-.54,0-1.18.24-1.18,1.34V139H232Z"/><path class="a" d="M235.47,131h1.19v1.19h-1.19Zm0,2h1.19V139h-1.19Z"/><path class="a" d="M241.74,137.74c0,.22.13.42.3.42a.53.53,0,0,0,.2,0v.77a1.5,1.5,0,0,1-.58.14c-.53,0-1-.21-1-.78h0a1.55,1.55,0,0,1-1.48.87c-.94,0-1.54-.53-1.54-1.66a1.62,1.62,0,0,1,1.38-1.86l.92-.25c.43-.12.69-.24.69-.76s-.18-.88-.81-.88c-.79,0-.9.56-.9,1.13h-1.12c0-1.25.51-1.95,2.08-1.95,1,0,1.88.41,1.88,1.46Zm-1.13-1.89a7,7,0,0,1-1.32.55,1,1,0,0,0-.48,1c0,.49.24.89.74.89.71,0,1.06-.54,1.06-1.41Z"/><path class="a" d="M243,131.12h1.19V139H243Z"/><path class="a" d="M247.94,134.79v-.16c0-.47-.17-.91-.78-.91s-.85.22-.85.77.21.65.84.87l.76.26a1.6,1.6,0,0,1,1.28,1.71c0,1.26-.92,1.8-2.12,1.8-1.5,0-1.95-.69-1.95-1.84v-.22h1.06v.19c0,.68.24,1.06.92,1.06s1-.33,1-.87a.86.86,0,0,0-.65-.87l-1-.34a1.58,1.58,0,0,1-1.26-1.71c0-1.11.8-1.63,2-1.63,1.51,0,1.85.88,1.85,1.62v.27Z"/><path class="a" d="M164.17,163.5v.16c0,1.42-.57,2.81-2.42,2.81s-2.6-1.28-2.6-4.08.62-4.08,2.61-4.08a2.15,2.15,0,0,1,2.37,2.46v.14h-1.26v-.13c0-.73-.22-1.56-1.12-1.53s-1.34.57-1.34,3.1.42,3.17,1.34,3.17,1.17-1.16,1.17-1.89v-.13Z"/><path class="a" d="M166.94,160.24c1.73,0,2.21,1.28,2.21,3.12s-.56,3.11-2.21,3.11-2.2-1.28-2.2-3.11S165.22,160.24,166.94,160.24Zm0,5.35c.87,0,1-.73,1-2.23,0-1.31-.15-2.24-1-2.24s-1,.93-1,2.24C165.93,164.86,166.08,165.59,166.94,165.59Z"/><path class="a" d="M170.06,158.46h1.19V161l0,0a1.7,1.7,0,0,1,1.45-.82c.9,0,1.47.41,1.47,1.61v4.46H173v-4.06c0-.76-.23-1.06-.82-1.06s-.95.38-.95,1.15v4h-1.19Z"/><path class="a" d="M177.32,160.24c1.73,0,2.22,1.28,2.22,3.12s-.57,3.11-2.22,3.11-2.2-1.28-2.2-3.11S175.61,160.24,177.32,160.24Zm0,5.35c.87,0,1-.73,1-2.23,0-1.31-.16-2.24-1-2.24s-1,.93-1,2.24C176.31,164.86,176.47,165.59,177.32,165.59Z"/><path class="a" d="M180.45,160.4h1.19v.92h0a1.46,1.46,0,0,1,1.37-1.08.72.72,0,0,1,.29,0v1.21a1.85,1.85,0,0,0-.5-.07c-.53,0-1.18.24-1.18,1.34v3.54h-1.19Z"/><path class="a" d="M183.38,160.4h.82v-1.69h1.19v1.69h1v.88h-1v3.53c0,.46.13.62.54.62a2.54,2.54,0,0,0,.43,0v.88a3.82,3.82,0,0,1-1,.1c-.81,0-1.2-.22-1.2-1.43v-3.67h-.82Z"/><path class="a" d="M192.16,162.12V162c0-.47-.16-.91-.78-.91-.47,0-.85.22-.85.77s.21.65.84.87l.76.26a1.61,1.61,0,0,1,1.29,1.7c0,1.27-.93,1.81-2.13,1.81-1.49,0-1.94-.69-1.94-1.84v-.22h1.05v.19c0,.68.24,1.05.93,1.05s1-.33,1-.86a.87.87,0,0,0-.65-.87l-1-.34a1.59,1.59,0,0,1-1.27-1.71c0-1.11.81-1.63,2-1.63,1.5,0,1.85.88,1.85,1.62v.26Z"/><path class="a" d="M193.77,160.4h.81v-1.69h1.19v1.69h1v.88h-1v3.53c0,.46.13.62.54.62a2.46,2.46,0,0,0,.43,0v.88a3.72,3.72,0,0,1-1,.1c-.8,0-1.2-.22-1.2-1.43v-3.67h-.81Z"/><path class="a" d="M200.38,165.62h0a1.7,1.7,0,0,1-1.52.85c-.88,0-1.48-.41-1.48-1.94V160.4h1.19v4.24c0,.66.3.88.8.88a.93.93,0,0,0,1-1V160.4h1.19v5.91h-1.12Z"/><path class="a" d="M205.67,165.59h0a1.28,1.28,0,0,1-1.3.88c-1.39,0-1.94-1.16-1.94-3.19,0-2.63.93-3,1.83-3a1.37,1.37,0,0,1,1.34.85h0v-2.63h1.19v7.85h-1.12Zm-1.08-4.4c-.68,0-.92.55-.92,2.14,0,1.35.17,2.19,1,2.19s1-.83,1-2.1S205.51,161.19,204.59,161.19Z"/><path class="a" d="M208,158.37h1.19v1.19H208Zm0,2h1.19v5.91H208Z"/><path class="a" d="M211.4,163.51v.34c0,.79.1,1.8,1,1.8s1-1,1-1.32h1.12a2,2,0,0,1-2.08,2.14c-1,0-2.17-.29-2.17-3,0-1.55.33-3.2,2.19-3.2,1.65,0,2.09,1,2.09,2.64v.63Zm1.9-.81v-.32c0-.75-.24-1.32-.91-1.32s-1,.74-1,1.51v.13Z"/><path class="a" d="M218,162.12V162c0-.47-.16-.91-.78-.91-.47,0-.85.22-.85.77s.21.65.84.87l.76.26a1.61,1.61,0,0,1,1.29,1.7c0,1.27-.93,1.81-2.13,1.81-1.49,0-1.94-.69-1.94-1.84v-.22h1v.19c0,.68.24,1.05.93,1.05s1-.33,1-.86a.86.86,0,0,0-.64-.87l-1-.34a1.59,1.59,0,0,1-1.27-1.71c0-1.11.8-1.63,2-1.63,1.5,0,1.84.88,1.84,1.62v.26Z"/><path class="j" d="M144.75,217.51v.16c0,1.42-.57,2.81-2.42,2.81s-2.59-1.28-2.59-4.08.61-4.09,2.61-4.09a2.15,2.15,0,0,1,2.36,2.47v.14h-1.25v-.13c0-.73-.22-1.56-1.13-1.53s-1.34.57-1.34,3.1.42,3.17,1.34,3.17,1.17-1.17,1.17-1.89v-.13Z"/><path class="j" d="M149.44,219.09c0,.22.13.42.31.42a.56.56,0,0,0,.2,0v.77a1.6,1.6,0,0,1-.59.14c-.52,0-1-.21-1-.78h0a1.54,1.54,0,0,1-1.47.87c-1,0-1.54-.53-1.54-1.66A1.62,1.62,0,0,1,146.7,217l.93-.26c.42-.12.69-.24.69-.76s-.19-.88-.82-.88c-.79,0-.9.56-.9,1.14h-1.12c0-1.26.52-1.95,2.08-1.95,1,0,1.88.41,1.88,1.45Zm-1.12-1.89a8.54,8.54,0,0,1-1.32.55,1,1,0,0,0-.49,1c0,.49.25.89.74.89.72,0,1.07-.54,1.07-1.41Z"/><path class="j" d="M153.2,216.13V216c0-.48-.16-.92-.78-.92-.47,0-.85.22-.85.77s.21.65.84.87l.76.27a1.6,1.6,0,0,1,1.29,1.7c0,1.27-.93,1.81-2.13,1.81-1.49,0-1.94-.7-1.94-1.84v-.22h1.05v.19c0,.68.24,1,.93,1s1-.33,1-.87a.87.87,0,0,0-.64-.87l-1-.34a1.57,1.57,0,0,1-1.27-1.7c0-1.11.8-1.63,2-1.63,1.5,0,1.84.88,1.84,1.62v.26Z"/><path class="j" d="M156.36,217.52v.34c0,.79.1,1.8,1,1.8s.94-1,.94-1.32h1.13a2,2,0,0,1-2.08,2.14c-1,0-2.17-.29-2.17-3,0-1.55.33-3.2,2.19-3.2,1.65,0,2.09,1,2.09,2.64v.63Zm1.9-.82v-.32c0-.74-.24-1.32-.91-1.32s-1,.75-1,1.52v.12Z"/><path class="j" d="M165.62,216.13V216c0-.48-.17-.92-.78-.92s-.85.22-.85.77.21.65.84.87l.76.27a1.59,1.59,0,0,1,1.28,1.7c0,1.27-.92,1.81-2.12,1.81-1.5,0-1.95-.7-1.95-1.84v-.22h1.06v.19c0,.68.24,1,.92,1s1-.33,1-.87a.87.87,0,0,0-.65-.87l-1-.34a1.57,1.57,0,0,1-1.27-1.7c0-1.11.8-1.63,2-1.63,1.51,0,1.85.88,1.85,1.62v.26Z"/><path class="j" d="M168.78,217.52v.34c0,.79.1,1.8,1,1.8s.94-1,.94-1.32h1.12a2,2,0,0,1-2.07,2.14c-1,0-2.17-.29-2.17-3,0-1.55.33-3.2,2.19-3.2,1.65,0,2.09,1,2.09,2.64v.63Zm1.9-.82v-.32c0-.74-.24-1.32-.91-1.32s-1,.75-1,1.52v.12Z"/><path class="j" d="M172.85,214.4H174v.93h0a1.46,1.46,0,0,1,1.37-1.08,1.06,1.06,0,0,1,.29,0v1.21a2.51,2.51,0,0,0-.5-.06c-.54,0-1.19.24-1.19,1.34v3.54h-1.18Z"/><path class="j" d="M176.37,212.38h1.18v1.19h-1.18Zm0,2h1.18v5.92h-1.18Z"/><path class="j" d="M179.78,217.52v.34c0,.79.09,1.8,1,1.8s.94-1,.94-1.32h1.12a2,2,0,0,1-2.08,2.14c-1,0-2.16-.29-2.16-3,0-1.55.33-3.2,2.19-3.2,1.65,0,2.09,1,2.09,2.64v.63Zm1.9-.82v-.32c0-.74-.24-1.32-.91-1.32s-1,.75-1,1.52v.12Z"/><path class="j" d="M186.4,216.13V216c0-.48-.17-.92-.78-.92s-.85.22-.85.77.21.65.84.87l.75.27a1.6,1.6,0,0,1,1.29,1.7c0,1.27-.92,1.81-2.12,1.81-1.5,0-1.95-.7-1.95-1.84v-.22h1.06v.19c0,.68.24,1,.92,1s1-.33,1-.87a.87.87,0,0,0-.65-.87l-1-.34a1.57,1.57,0,0,1-1.26-1.7c0-1.11.8-1.63,2-1.63,1.51,0,1.85.88,1.85,1.62v.26Z"/><path class="j" d="M195.05,219.09c0,.22.14.42.31.42a.53.53,0,0,0,.2,0v.77a1.5,1.5,0,0,1-.58.14c-.53,0-1-.21-1-.78h0a1.54,1.54,0,0,1-1.47.87c-.95,0-1.54-.53-1.54-1.66a1.62,1.62,0,0,1,1.37-1.86l.93-.26c.43-.12.69-.24.69-.76s-.19-.88-.81-.88c-.79,0-.9.56-.9,1.14h-1.13c0-1.26.52-1.95,2.08-1.95,1.05,0,1.88.41,1.88,1.45Zm-1.12-1.89a8.54,8.54,0,0,1-1.32.55,1,1,0,0,0-.48,1c0,.49.24.89.73.89.72,0,1.07-.54,1.07-1.41Z"/><path class="j" d="M196.26,214.4h1.13v.7h0a1.7,1.7,0,0,1,1.52-.85c.9,0,1.47.41,1.47,1.61v4.46h-1.19v-4.06c0-.77-.23-1.06-.82-1.06s-1,.38-1,1.15v4h-1.19Z"/><path class="j" d="M204.58,219.6h0a1.28,1.28,0,0,1-1.3.88c-1.39,0-1.94-1.16-1.94-3.19,0-2.63.93-3,1.83-3a1.37,1.37,0,0,1,1.34.85h0v-2.63h1.19v7.85h-1.12Zm-1.08-4.4c-.68,0-.92.55-.92,2.14,0,1.34.17,2.19,1,2.19s1-.84,1-2.1C204.58,216,204.41,215.2,203.5,215.2Z"/><path class="j" d="M209.49,214.4h1.18v.93h0a1.46,1.46,0,0,1,1.37-1.08,1.06,1.06,0,0,1,.29,0v1.21a2.51,2.51,0,0,0-.5-.06c-.54,0-1.19.24-1.19,1.34v3.54h-1.18Z"/><path class="j" d="M213.91,217.52v.34c0,.79.1,1.8,1,1.8s.94-1,.94-1.32H217a2,2,0,0,1-2.07,2.14c-1,0-2.17-.29-2.17-3,0-1.55.33-3.2,2.19-3.2,1.65,0,2.09,1,2.09,2.64v.63Zm1.9-.82v-.32c0-.74-.24-1.32-.91-1.32s-1,.75-1,1.52v.12Z"/><path class="j" d="M218,214.4h1.12v.73h0a1.39,1.39,0,0,1,1.33-.88c1.35,0,1.91,1.16,1.91,3.19,0,2.49-1,3-1.83,3a1.37,1.37,0,0,1-1.34-.85h0v2.63H218Zm2.13,5.13c.68,0,1-.51,1-2.14,0-1.35-.18-2.19-1-2.19s-1,.83-1,2.1S219.27,219.53,220.11,219.53Z"/><path class="j" d="M225.24,214.25c1.72,0,2.21,1.28,2.21,3.11s-.56,3.12-2.21,3.12-2.2-1.28-2.2-3.12S223.52,214.25,225.24,214.25Zm0,5.35c.87,0,1-.73,1-2.24,0-1.31-.15-2.23-1-2.23s-1,.92-1,2.23C224.22,218.87,224.38,219.6,225.24,219.6Z"/><path class="j" d="M228.36,214.4h1.19v.93h0a1.46,1.46,0,0,1,1.38-1.08,1,1,0,0,1,.28,0v1.21a2.49,2.49,0,0,0-.49-.06c-.54,0-1.19.24-1.19,1.34v3.54h-1.19Z"/><path class="j" d="M231.3,214.4h.81v-1.68h1.19v1.68h1v.88h-1v3.54c0,.46.13.62.54.62a2.54,2.54,0,0,0,.43,0v.88a3.82,3.82,0,0,1-1,.1c-.8,0-1.2-.22-1.2-1.43v-3.68h-.81Z"/><path class="j" d="M237.43,216.13V216c0-.48-.16-.92-.78-.92-.47,0-.84.22-.84.77s.21.65.83.87l.76.27a1.6,1.6,0,0,1,1.29,1.7c0,1.27-.93,1.81-2.12,1.81-1.5,0-1.95-.7-1.95-1.84v-.22h1v.19c0,.68.25,1,.93,1s1-.33,1-.87a.87.87,0,0,0-.65-.87l-1-.34a1.57,1.57,0,0,1-1.27-1.7c0-1.11.81-1.63,2-1.63,1.51,0,1.85.88,1.85,1.62v.26Z"/><path class="j" d="M98.23,251.77h2.54c1.17,0,2.12.51,2.12,1.9a1.63,1.63,0,0,1-1.16,1.78v0c.86.16,1.41.67,1.41,2a2.14,2.14,0,0,1-2.42,2.14H98.23Zm2.25,3.31a1.11,1.11,0,0,0,1.15-1.25c0-.93-.56-1.12-1.26-1.12h-.88v2.37Zm.25,3.59c.75,0,1.15-.48,1.15-1.38a1.19,1.19,0,0,0-1.23-1.33H99.49v2.71Z"/><path class="j" d="M108,258.39c0,.22.13.42.3.42a.37.37,0,0,0,.2,0v.77a1.33,1.33,0,0,1-.58.15c-.53,0-1-.21-1-.78h0a1.56,1.56,0,0,1-1.48.87c-.94,0-1.54-.53-1.54-1.67a1.63,1.63,0,0,1,1.38-1.86l.92-.25c.43-.12.69-.24.69-.76s-.18-.88-.81-.88c-.79,0-.9.56-.9,1.14H104c0-1.26.51-1.95,2.07-1.95,1,0,1.89.41,1.89,1.45Zm-1.13-1.89a7.79,7.79,0,0,1-1.32.55,1,1,0,0,0-.48.95c0,.5.24.89.74.89.71,0,1.06-.53,1.06-1.4Z"/><path class="j" d="M113.15,257.46c-.08,1.42-.56,2.32-2,2.32-1.71,0-2.2-1.28-2.2-3.12s.49-3.11,2.2-3.11a1.9,1.9,0,0,1,2,2.12H112c0-.55-.15-1.26-.85-1.24-.85,0-1,.92-1,2.23s.16,2.23,1,2.23c.66,0,.91-.53.91-1.43Z"/><path class="j" d="M114,251.77h1.19v4.41h0l1.8-2.48h1.37L116.57,256l2,3.64h-1.3l-1.45-2.69-.67.81v1.88H114Z"/><path class="j" d="M120.25,260.13a.78.78,0,0,0,.86.7,1,1,0,0,0,1-1.11v-1h0a1.43,1.43,0,0,1-1.34.82c-1.39,0-1.77-1.37-1.77-3,0-1.3.2-3.05,1.88-3.05a1.32,1.32,0,0,1,1.3.88h0v-.73h1.12v5.63c0,1.45-.61,2.32-2.21,2.32-1.76,0-2-1-2-1.52Zm.84-1.5c.92,0,1-1.17,1-2.1s-.12-2-.94-2-1,.88-1,2S120.21,258.63,121.09,258.63Z"/><path class="j" d="M124.42,253.7h1.19v.93h0a1.48,1.48,0,0,1,1.38-1.08.93.93,0,0,1,.28,0v1.21a2.29,2.29,0,0,0-.49-.06c-.54,0-1.19.24-1.19,1.34v3.54h-1.19Z"/><path class="j" d="M129.86,253.55c1.72,0,2.21,1.27,2.21,3.11s-.56,3.12-2.21,3.12-2.2-1.28-2.2-3.12S128.14,253.55,129.86,253.55Zm0,5.34c.87,0,1-.72,1-2.23,0-1.31-.15-2.23-1-2.23s-1,.92-1,2.23C128.84,258.17,129,258.89,129.86,258.89Z"/><path class="j" d="M136,258.93h0a1.69,1.69,0,0,1-1.52.85c-.88,0-1.47-.41-1.47-1.94V253.7h1.19V258c0,.66.3.88.8.88a.93.93,0,0,0,1-1V253.7h1.19v5.92H136Z"/><path class="j" d="M138.27,253.7h1.12v.7h0a1.68,1.68,0,0,1,1.52-.85c.9,0,1.47.41,1.47,1.6v4.47h-1.19v-4.06c0-.77-.23-1.07-.82-1.07s-.95.39-.95,1.16v4h-1.19Z"/><path class="j" d="M146.59,258.89h0a1.28,1.28,0,0,1-1.3.89c-1.39,0-1.94-1.16-1.94-3.2,0-2.62.93-3,1.83-3a1.37,1.37,0,0,1,1.34.85h0v-2.63h1.19v7.85h-1.12Zm-1.08-4.4c-.68,0-.92.55-.92,2.15,0,1.34.17,2.19,1,2.19s1-.84,1-2.1C146.59,255.31,146.42,254.49,145.51,254.49Z"/><path class="j" d="M151.55,251.68h1.19v1.19h-1.19Zm0,2h1.19v5.92h-1.19Z"/><path class="j" d="M153.94,253.7h1.12v.7h0a1.7,1.7,0,0,1,1.52-.85c.9,0,1.47.41,1.47,1.6v4.47h-1.19v-4.06c0-.77-.23-1.07-.82-1.07s-.95.39-.95,1.16v4h-1.18Z"/><path class="j" d="M159.59,254.58h-.83v-.88h.83v-.55c0-1.12.54-1.47,1.51-1.47a5.72,5.72,0,0,1,.64,0v.91h-.33c-.44,0-.63.17-.63.57v.51h1v.88h-1v5h-1.19Z"/><path class="j" d="M164.25,253.55c1.73,0,2.21,1.27,2.21,3.11s-.56,3.12-2.21,3.12-2.2-1.28-2.2-3.12S162.54,253.55,164.25,253.55Zm0,5.34c.87,0,1-.72,1-2.23,0-1.31-.16-2.23-1-2.23s-1,.92-1,2.23C163.24,258.17,163.39,258.89,164.25,258.89Z"/><path class="j" d="M167.38,253.7h1.19v.93h0a1.46,1.46,0,0,1,1.37-1.08,1.06,1.06,0,0,1,.29,0v1.21a2.51,2.51,0,0,0-.5-.06c-.54,0-1.18.24-1.18,1.34v3.54h-1.19Z"/><path class="j" d="M171,253.7h1.12v.7h0a1.66,1.66,0,0,1,1.42-.85,1.29,1.29,0,0,1,1.38.9,1.61,1.61,0,0,1,1.49-.9c.84,0,1.44.43,1.44,1.57v4.5h-1.18v-4.06c0-.77-.24-1.07-.72-1.07s-1,.39-1,1.16v4h-1.18v-4.06c0-.77-.23-1.07-.73-1.07s-.93.39-.93,1.16v4H171Z"/><path class="j" d="M183,258.39c0,.22.14.42.31.42a.37.37,0,0,0,.2,0v.77a1.33,1.33,0,0,1-.58.15c-.53,0-1-.21-1-.78h0a1.53,1.53,0,0,1-1.47.87c-1,0-1.54-.53-1.54-1.67a1.63,1.63,0,0,1,1.38-1.86l.92-.25c.43-.12.69-.24.69-.76s-.18-.88-.81-.88c-.79,0-.9.56-.9,1.14H179c0-1.26.52-1.95,2.08-1.95,1,0,1.88.41,1.88,1.45Zm-1.12-1.89a8.54,8.54,0,0,1-1.32.55,1,1,0,0,0-.48.95c0,.5.24.89.74.89.71,0,1.06-.53,1.06-1.4Z"/><path class="j" d="M183.66,253.7h.81V252h1.19v1.68h1v.88h-1v3.53c0,.47.13.63.54.63a2.54,2.54,0,0,0,.43,0v.88a4.35,4.35,0,0,1-1,.1c-.8,0-1.2-.22-1.2-1.43v-3.68h-.81Z"/><path class="j" d="M187.3,251.68h1.19v1.19H187.3Zm0,2h1.19v5.92H187.3Z"/><path class="j" d="M191.65,253.55c1.73,0,2.21,1.27,2.21,3.11s-.56,3.12-2.21,3.12-2.2-1.28-2.2-3.12S189.94,253.55,191.65,253.55Zm0,5.34c.87,0,1-.72,1-2.23,0-1.31-.16-2.23-1-2.23s-1,.92-1,2.23C190.64,258.17,190.8,258.89,191.65,258.89Z"/><path class="j" d="M194.78,253.7h1.12v.7h0a1.7,1.7,0,0,1,1.52-.85c.9,0,1.48.41,1.48,1.6v4.47h-1.19v-4.06c0-.77-.23-1.07-.83-1.07s-.94.39-.94,1.16v4h-1.19Z"/><path class="j" d="M206.59,258.39c0,.22.13.42.31.42a.4.4,0,0,0,.2,0v.77a1.38,1.38,0,0,1-.59.15c-.52,0-1-.21-1-.78h0a1.54,1.54,0,0,1-1.47.87c-1,0-1.54-.53-1.54-1.67a1.63,1.63,0,0,1,1.37-1.86l.93-.25c.43-.12.69-.24.69-.76s-.19-.88-.81-.88c-.8,0-.91.56-.91,1.14h-1.12c0-1.26.52-1.95,2.08-1.95,1,0,1.88.41,1.88,1.45Zm-1.12-1.89a8.54,8.54,0,0,1-1.32.55,1,1,0,0,0-.48.95c0,.5.24.89.73.89.72,0,1.07-.53,1.07-1.4Z"/><path class="j" d="M207.8,253.7h1.12v.7h0a1.68,1.68,0,0,1,1.51-.85c.91,0,1.48.41,1.48,1.6v4.47h-1.19v-4.06c0-.77-.23-1.07-.82-1.07s-.95.39-.95,1.16v4H207.8Z"/><path class="j" d="M216.12,258.89h0a1.28,1.28,0,0,1-1.3.89c-1.39,0-1.94-1.16-1.94-3.2,0-2.62.92-3,1.83-3a1.38,1.38,0,0,1,1.34.85h0v-2.63h1.19v7.85h-1.12Zm-1.08-4.4c-.68,0-.93.55-.93,2.15,0,1.34.18,2.19,1,2.19s1-.84,1-2.1C216.12,255.31,216,254.49,215,254.49Z"/><path class="j" d="M222.05,256.82v.34c0,.79.09,1.8,1,1.8s.94-1,.94-1.32h1.12a2,2,0,0,1-2.08,2.14c-1,0-2.16-.29-2.16-3,0-1.55.33-3.2,2.19-3.2,1.65,0,2.09,1,2.09,2.64v.63ZM224,256v-.32c0-.75-.24-1.32-.91-1.32s-1,.75-1,1.52V256Z"/><path class="j" d="M227.13,256.55l-1.53-2.85h1.3l.92,2,1-2h1.28l-1.54,2.85,1.6,3.07h-1.29l-1-2.19-1,2.19h-1.27Z"/><path class="j" d="M230.74,253.7h1.12v.73h0a1.39,1.39,0,0,1,1.33-.88c1.35,0,1.9,1.15,1.9,3.19,0,2.48-1,3-1.82,3a1.37,1.37,0,0,1-1.34-.85h0v2.63h-1.18Zm2.13,5.13c.68,0,1-.51,1-2.15,0-1.34-.18-2.19-1-2.19s-1,.84-1,2.11S232,258.83,232.87,258.83Z"/><path class="j" d="M237.05,256.82v.34c0,.79.1,1.8,1,1.8s1-1,1-1.32h1.12a2,2,0,0,1-2.08,2.14c-1,0-2.17-.29-2.17-3,0-1.55.33-3.2,2.19-3.2,1.65,0,2.09,1,2.09,2.64v.63ZM239,256v-.32c0-.75-.24-1.32-.91-1.32s-1,.75-1,1.52V256Z"/><path class="j" d="M241.12,253.7h1.19v.93h0a1.46,1.46,0,0,1,1.37-1.08,1,1,0,0,1,.29,0v1.21a2.49,2.49,0,0,0-.49-.06c-.54,0-1.19.24-1.19,1.34v3.54h-1.19Z"/><path class="j" d="M244.06,253.7h.81V252h1.19v1.68h1v.88h-1v3.53c0,.47.13.63.54.63a2.54,2.54,0,0,0,.43,0v.88a4.35,4.35,0,0,1-1,.1c-.8,0-1.2-.22-1.2-1.43v-3.68h-.81Z"/><path class="j" d="M252.25,253.55c1.73,0,2.21,1.27,2.21,3.11s-.56,3.12-2.21,3.12-2.2-1.28-2.2-3.12S250.54,253.55,252.25,253.55Zm0,5.34c.87,0,1-.72,1-2.23,0-1.31-.15-2.23-1-2.23s-1,.92-1,2.23C251.24,258.17,251.39,258.89,252.25,258.89Z"/><path class="j" d="M255.38,253.7h1.12v.73h0a1.39,1.39,0,0,1,1.33-.88c1.35,0,1.9,1.15,1.9,3.19,0,2.48-1,3-1.82,3a1.37,1.37,0,0,1-1.34-.85h0v2.63h-1.18Zm2.13,5.13c.68,0,1-.51,1-2.15,0-1.34-.18-2.19-1-2.19s-1,.84-1,2.11S256.67,258.83,257.51,258.83Z"/><path class="j" d="M260.72,251.68h1.19v1.19h-1.19Zm0,2h1.19v5.92h-1.19Z"/><path class="j" d="M263.11,253.7h1.12v.7h0a1.7,1.7,0,0,1,1.52-.85c.9,0,1.48.41,1.48,1.6v4.47h-1.19v-4.06c0-.77-.23-1.07-.83-1.07s-.94.39-.94,1.16v4h-1.19Z"/><path class="j" d="M268.45,251.68h1.19v1.19h-1.19Zm0,2h1.19v5.92h-1.19Z"/><path class="j" d="M272.81,253.55c1.73,0,2.21,1.27,2.21,3.11s-.56,3.12-2.21,3.12-2.2-1.28-2.2-3.12S271.09,253.55,272.81,253.55Zm0,5.34c.87,0,1-.72,1-2.23,0-1.31-.15-2.23-1-2.23s-1,.92-1,2.23C271.8,258.17,272,258.89,272.81,258.89Z"/><path class="j" d="M275.93,253.7h1.13v.7h0a1.7,1.7,0,0,1,1.52-.85c.9,0,1.47.41,1.47,1.6v4.47h-1.19v-4.06c0-.77-.23-1.07-.82-1.07s-.95.39-.95,1.16v4h-1.19Z"/><path class="i" d="M327.19,54.91h3.63v.72h-2.76v2.24h2.55v.72h-2.55v3h-.87Z"/><path class="i" d="M332.75,55.44a.55.55,0,1,1-.54-.54A.52.52,0,0,1,332.75,55.44Zm-1,6.2V56.81h.88v4.83Z"/><path class="i" d="M334.11,54.55H335v7.09h-.88Z"/><path class="i" d="M337.53,55.42v1.39h1.26v.67h-1.26v2.6c0,.6.17.94.66.94a2,2,0,0,0,.51-.06l0,.67a2.42,2.42,0,0,1-.79.12,1.25,1.25,0,0,1-.94-.37,1.82,1.82,0,0,1-.35-1.26V57.48h-.74v-.67h.74V55.64Z"/><path class="i" d="M340.21,59.38a1.55,1.55,0,0,0,1.66,1.68,3.37,3.37,0,0,0,1.34-.24l.15.62a3.89,3.89,0,0,1-1.61.31,2.25,2.25,0,0,1-2.38-2.44,2.34,2.34,0,0,1,2.27-2.61,2,2,0,0,1,2,2.27,2,2,0,0,1,0,.41Zm2.58-.63a1.26,1.26,0,0,0-1.22-1.42,1.45,1.45,0,0,0-1.35,1.42Z"/><path class="i" d="M344.73,58.31c0-.57,0-1.05,0-1.5h.77l0,.95h0a1.45,1.45,0,0,1,1.34-1.06l.25,0v.83a1.37,1.37,0,0,0-.3,0,1.22,1.22,0,0,0-1.18,1.12,2.59,2.59,0,0,0,0,.41v2.58h-.87Z"/><path class="i" d="M348.39,59.38a1.55,1.55,0,0,0,1.66,1.68,3.37,3.37,0,0,0,1.34-.24l.15.62a3.89,3.89,0,0,1-1.61.31,2.25,2.25,0,0,1-2.38-2.44,2.34,2.34,0,0,1,2.27-2.61,2,2,0,0,1,2,2.27,2,2,0,0,1,0,.41Zm2.58-.63a1.25,1.25,0,0,0-1.22-1.42,1.45,1.45,0,0,0-1.35,1.42Z"/><path class="i" d="M357.08,54.55V60.4c0,.43,0,.91,0,1.24h-.78l0-.83h0a1.77,1.77,0,0,1-1.64.94,2.2,2.2,0,0,1-2.07-2.45,2.31,2.31,0,0,1,2.17-2.6,1.63,1.63,0,0,1,1.46.73h0V54.55Zm-.87,4.23a1.64,1.64,0,0,0,0-.38,1.3,1.3,0,0,0-1.27-1c-.91,0-1.45.8-1.45,1.86s.48,1.8,1.43,1.8A1.34,1.34,0,0,0,356.17,60a1.53,1.53,0,0,0,0-.38Z"/><path class="i" d="M310.24,67.44a.55.55,0,1,1-.54-.54A.52.52,0,0,1,310.24,67.44Zm-1,6.2V68.81h.88v4.83Z"/><path class="i" d="M311.6,70.12c0-.51,0-.91,0-1.31h.78l.05.79h0a1.79,1.79,0,0,1,1.6-.9c.66,0,1.7.4,1.7,2.06v2.88h-.87V70.86c0-.79-.3-1.44-1.12-1.44a1.25,1.25,0,0,0-1.18.9,1.27,1.27,0,0,0-.06.41v2.91h-.88Z"/><path class="i" d="M317.24,73.64V69.48h-.68v-.67h.68v-.23a2.31,2.31,0,0,1,.56-1.7,1.67,1.67,0,0,1,1.17-.44,1.78,1.78,0,0,1,.75.14l-.11.67a1.55,1.55,0,0,0-.57-.11c-.74,0-.93.66-.93,1.41v.26h1.16v.67h-1.16v4.16Z"/><path class="i" d="M324.32,71.18a2.37,2.37,0,0,1-2.41,2.57,2.3,2.3,0,0,1-2.32-2.49A2.36,2.36,0,0,1,322,68.7,2.29,2.29,0,0,1,324.32,71.18Zm-3.84.06c0,1.06.61,1.85,1.47,1.85s1.47-.78,1.47-1.88c0-.82-.41-1.85-1.46-1.85S320.48,70.32,320.48,71.24Z"/><path class="i" d="M325.43,70.31c0-.57,0-1,0-1.5h.77l0,1h0a1.47,1.47,0,0,1,1.35-1.06l.25,0v.83a1.37,1.37,0,0,0-.3,0,1.22,1.22,0,0,0-1.18,1.12,2.59,2.59,0,0,0,0,.41v2.58h-.87Z"/><path class="i" d="M328.74,70.12c0-.51,0-.91,0-1.31h.76l.05.78h0a1.67,1.67,0,0,1,1.53-.89,1.41,1.41,0,0,1,1.36,1h0A1.92,1.92,0,0,1,333,69a1.64,1.64,0,0,1,1.06-.34c.65,0,1.6.42,1.6,2.1v2.84h-.86V70.91c0-.94-.34-1.49-1.05-1.49a1.14,1.14,0,0,0-1,.79,1.23,1.23,0,0,0-.08.44v3h-.85v-2.9c0-.77-.35-1.32-1-1.32a1.23,1.23,0,0,0-1.1.88,1.44,1.44,0,0,0-.06.43v2.91h-.86Z"/><path class="i" d="M339.76,73.64l-.08-.61h0a1.8,1.8,0,0,1-1.48.72,1.38,1.38,0,0,1-1.48-1.38c0-1.17,1-1.82,2.91-1.8v-.11a1,1,0,0,0-1.1-1.11,2.32,2.32,0,0,0-1.26.36l-.2-.59a3.1,3.1,0,0,1,1.59-.42c1.48,0,1.84,1,1.84,2v1.81a8.07,8.07,0,0,0,.07,1.15Zm-.14-2.47c-.95,0-2,.16-2,1.09a.77.77,0,0,0,.83.84,1.2,1.2,0,0,0,1.17-.81.88.88,0,0,0,0-.27Z"/><path class="i" d="M342.92,67.42v1.39h1.26v.67h-1.26v2.6c0,.6.17.94.66.94a2,2,0,0,0,.51-.06l0,.67a2.42,2.42,0,0,1-.79.12,1.25,1.25,0,0,1-.94-.37,1.82,1.82,0,0,1-.35-1.26V69.48h-.74v-.67h.74V67.64Z"/><path class="i" d="M346.15,67.44a.55.55,0,1,1-.54-.54A.52.52,0,0,1,346.15,67.44Zm-1,6.2V68.81h.88v4.83Z"/><path class="i" d="M351.89,71.18a2.37,2.37,0,0,1-2.41,2.57,2.3,2.3,0,0,1-2.32-2.49,2.36,2.36,0,0,1,2.4-2.56A2.29,2.29,0,0,1,351.89,71.18Zm-3.84.06c0,1.06.61,1.85,1.47,1.85s1.47-.78,1.47-1.88c0-.82-.41-1.85-1.46-1.85S348.05,70.32,348.05,71.24Z"/><path class="i" d="M353,70.12c0-.51,0-.91,0-1.31h.78l.05.79h0a1.79,1.79,0,0,1,1.6-.9c.66,0,1.7.4,1.7,2.06v2.88h-.87V70.86c0-.79-.3-1.44-1.12-1.44a1.33,1.33,0,0,0-1.25,1.31v2.91H353Z"/><line class="b" x1="25.02" y1="287.77" x2="347.57" y2="287.74"/><rect class="a" x="134.11" y="279.1" width="100.75" height="18"/><path class="i" d="M144.2,283.41v6.74h-.87v-6.74Z"/><path class="i" d="M145.79,286.62c0-.51,0-.91,0-1.31h.78l.05.8h0a1.78,1.78,0,0,1,1.6-.91c.67,0,1.71.4,1.71,2.06v2.89H149v-2.79c0-.78-.29-1.44-1.12-1.44a1.27,1.27,0,0,0-1.18.91,1.2,1.2,0,0,0-.06.4v2.92h-.88Z"/><path class="i" d="M151.43,290.15V286h-.68v-.67h.68v-.23a2.32,2.32,0,0,1,.56-1.69,1.68,1.68,0,0,1,1.18-.45,2,2,0,0,1,.75.14l-.12.68a1.28,1.28,0,0,0-.56-.11c-.75,0-.94.66-.94,1.4v.26h1.17V286H152.3v4.17Z"/><path class="i" d="M158.51,287.68a2.37,2.37,0,0,1-2.4,2.58,2.3,2.3,0,0,1-2.33-2.49,2.37,2.37,0,0,1,2.4-2.57A2.29,2.29,0,0,1,158.51,287.68Zm-3.83.06c0,1.06.6,1.86,1.46,1.86s1.47-.79,1.47-1.89c0-.81-.41-1.85-1.45-1.85S154.68,286.82,154.68,287.74Z"/><path class="i" d="M159.62,286.82c0-.57,0-1.06,0-1.51h.77l0,.95h0a1.46,1.46,0,0,1,1.34-1.06,1,1,0,0,1,.25,0v.83a1.32,1.32,0,0,0-.3,0,1.23,1.23,0,0,0-1.18,1.12,2.73,2.73,0,0,0,0,.41v2.59h-.88Z"/><path class="i" d="M162.93,286.62c0-.51,0-.91,0-1.31h.77l0,.78h0a1.67,1.67,0,0,1,1.52-.89,1.43,1.43,0,0,1,1.37,1h0a2,2,0,0,1,.54-.63,1.67,1.67,0,0,1,1.07-.34c.64,0,1.59.42,1.59,2.1v2.85H169v-2.74c0-.93-.34-1.49-1-1.49a1.14,1.14,0,0,0-1,.79,1.57,1.57,0,0,0-.07.45v3H166v-2.9c0-.77-.34-1.33-1-1.33a1.21,1.21,0,0,0-1.09.88,1.49,1.49,0,0,0-.07.43v2.92h-.86Z"/><path class="i" d="M174,290.15l-.07-.61h0a1.83,1.83,0,0,1-1.48.72,1.38,1.38,0,0,1-1.47-1.39c0-1.17,1-1.81,2.9-1.8V287a1,1,0,0,0-1.1-1.12,2.41,2.41,0,0,0-1.26.36l-.2-.58a3,3,0,0,1,1.6-.43c1.47,0,1.83,1,1.83,2V289a6.89,6.89,0,0,0,.08,1.16Zm-.13-2.47c-.95,0-2,.15-2,1.08a.78.78,0,0,0,.82.85,1.22,1.22,0,0,0,1.18-.81,1,1,0,0,0,0-.28Z"/><path class="i" d="M177.11,283.92v1.39h1.26V286h-1.26v2.6c0,.61.17.95.66.95a1.55,1.55,0,0,0,.51-.07l0,.67a2.15,2.15,0,0,1-.78.12,1.22,1.22,0,0,1-.95-.37,1.86,1.86,0,0,1-.34-1.26V286h-.75v-.67h.75v-1.16Z"/><path class="i" d="M180.35,284a.53.53,0,0,1-.56.54.52.52,0,0,1-.53-.54.55.55,0,1,1,1.09,0Zm-1,6.2v-4.84h.88v4.84Z"/><path class="i" d="M186.08,287.68a2.37,2.37,0,0,1-2.41,2.58,2.3,2.3,0,0,1-2.32-2.49,2.36,2.36,0,0,1,2.4-2.57A2.29,2.29,0,0,1,186.08,287.68Zm-3.83.06c0,1.06.6,1.86,1.46,1.86s1.47-.79,1.47-1.89c0-.81-.41-1.85-1.45-1.85S182.25,286.82,182.25,287.74Z"/><path class="i" d="M187.19,286.62c0-.51,0-.91,0-1.31h.78l0,.8h0a1.78,1.78,0,0,1,1.6-.91c.67,0,1.71.4,1.71,2.06v2.89h-.88v-2.79c0-.78-.29-1.44-1.12-1.44a1.27,1.27,0,0,0-1.18.91,1.2,1.2,0,0,0-.06.4v2.92h-.88Z"/><path class="i" d="M195.2,285.31l1,2.71c.16.45.29.85.4,1.25h0c.11-.4.25-.8.41-1.25l.94-2.71h.92l-1.9,4.84h-.84l-1.84-4.84Z"/><path class="i" d="M204,287.68a2.37,2.37,0,0,1-2.41,2.58,2.3,2.3,0,0,1-2.32-2.49,2.36,2.36,0,0,1,2.4-2.57A2.29,2.29,0,0,1,204,287.68Zm-3.83.06c0,1.06.6,1.86,1.46,1.86s1.47-.79,1.47-1.89c0-.81-.41-1.85-1.45-1.85S200.12,286.82,200.12,287.74Z"/><path class="i" d="M205.06,283.05h.88v7.1h-.88Z"/><path class="i" d="M211.46,288.82c0,.51,0,.94,0,1.33h-.77l0-.79h0a1.82,1.82,0,0,1-1.6.9c-.76,0-1.67-.43-1.67-2.12v-2.83h.88V288c0,.93.28,1.55,1.08,1.55a1.27,1.27,0,0,0,1.16-.8,1.3,1.3,0,0,0,.08-.46v-3h.87Z"/><path class="i" d="M212.93,286.62c0-.51,0-.91,0-1.31h.77l0,.78h0a1.67,1.67,0,0,1,1.52-.89,1.43,1.43,0,0,1,1.37,1h0a2,2,0,0,1,.54-.63,1.64,1.64,0,0,1,1.06-.34c.65,0,1.6.42,1.6,2.1v2.85H219v-2.74c0-.93-.34-1.49-1-1.49a1.14,1.14,0,0,0-1,.79,1.57,1.57,0,0,0-.07.45v3H216v-2.9c0-.77-.34-1.33-1-1.33a1.31,1.31,0,0,0-1.16,1.31v2.92h-.86Z"/><path class="i" d="M221.76,287.89a1.55,1.55,0,0,0,1.66,1.68,3.35,3.35,0,0,0,1.34-.25l.15.62a3.89,3.89,0,0,1-1.61.31,2.25,2.25,0,0,1-2.38-2.44,2.35,2.35,0,0,1,2.28-2.61,2,2,0,0,1,2,2.28,2.15,2.15,0,0,1,0,.41Zm2.58-.63a1.25,1.25,0,0,0-1.22-1.43,1.45,1.45,0,0,0-1.34,1.43Z"/><path class="i" d="M73.56,174.93c-.67.65-1.38,1.26-2,1.78a1.7,1.7,0,0,0-.3.3,3.09,3.09,0,0,1-4.46.72c-1.83-1.13-2.32-3-1.36-4.53s2.79-1.82,4.49-.77a3.12,3.12,0,0,1,1.73,3.33l0,0c.49-.48,1-1,1.4-1.45Zm-4.1-1.7c-1.15-.71-2.7-.85-3.45.37s0,2.57,1.24,3.34,2.73.77,3.44-.39S70.76,174,69.46,173.23Z"/><path class="i" d="M74.43,169.14c.43.27.81.48,1.15.67l-.41.66-.7-.38v0a1.8,1.8,0,0,1-.08,1.83c-.4.65-1.24,1.2-2.68.3l-2.4-1.48.46-.75L72,171.42c.79.48,1.47.57,1.89-.1a1.29,1.29,0,0,0-.08-1.42,1.12,1.12,0,0,0-.34-.3L71,168l.46-.75Z"/><path class="i" d="M77.74,166.31l-.56-.25v0a1.83,1.83,0,0,1-.17,1.64,1.38,1.38,0,0,1-2,.52c-1-.62-1-1.84,0-3.42l-.08,0a1,1,0,0,0-1.53.35,2.35,2.35,0,0,0-.36,1.26l-.6-.14a3,3,0,0,1,.48-1.58,1.71,1.71,0,0,1,2.65-.52l1.54,1a7.42,7.42,0,0,0,1,.55Zm-2.17-1.18c-.52.8-.95,1.81-.15,2.3a.77.77,0,0,0,1.15-.25,1.1,1.1,0,0,0-.29-1.61Z"/><path class="i" d="M72.83,160.76l.47-.75,6,3.74-.46.74Z"/><path class="i" d="M75.36,158.39a.54.54,0,1,1-.58.92.54.54,0,0,1-.18-.75A.53.53,0,0,1,75.36,158.39Zm4.75,4.1L76,159.94l.46-.74,4.11,2.55Z"/><path class="i" d="M76.61,156.32l1.18.74.66-1.08.57.35-.67,1.08,2.22,1.37c.51.32.89.35,1.15-.07a1.62,1.62,0,0,0,.21-.47l.59.32a2.17,2.17,0,0,1-.31.73,1.19,1.19,0,0,1-.81.61,1.8,1.8,0,0,1-1.25-.37l-2.25-1.39-.39.64-.57-.36.39-.63-1-.62Z"/><path class="i" d="M79.19,154.79l3,.61c.33.07.71.17,1,.25v0l-.69-.79-1.91-2.31.49-.79,2.23,2.94a7.47,7.47,0,0,1,1.71,3,2.47,2.47,0,0,1-.09,1.22l-.74-.2a2.3,2.3,0,0,0,0-.89,2.74,2.74,0,0,0-.45-1.14.51.51,0,0,0-.14-.17.6.6,0,0,0-.22-.06l-4.73-.84Z"/><path class="i" d="M86.94,146.79a2.36,2.36,0,0,1,.92,3.39,2.3,2.3,0,0,1-3.34.67,2.36,2.36,0,0,1-.91-3.39A2.28,2.28,0,0,1,86.94,146.79Zm-2,3.28a1.64,1.64,0,0,0,2.35-.26,1.67,1.67,0,0,0-.83-2.25A1.51,1.51,0,1,0,85,150.07Z"/><path class="i" d="M89.66,147.06l-3.54-2.19-.35.57-.57-.35.36-.57-.2-.13A2.26,2.26,0,0,1,84.22,143a1.68,1.68,0,0,1,.23-1.23,1.91,1.91,0,0,1,.52-.56l.51.45a1.34,1.34,0,0,0-.39.42c-.39.63.07,1.15.7,1.54l.22.14.62-1,.57.36-.62,1,3.55,2.2Z"/><path class="i" d="M90.61,141.24a1.55,1.55,0,0,0,2.3-.52,3.32,3.32,0,0,0,.5-1.27l.61.2a3.74,3.74,0,0,1-.59,1.53,2.25,2.25,0,0,1-3.33.74,2.36,2.36,0,0,1-1-3.31,2,2,0,0,1,3-.49l.33.24Zm.82-2.52a1.25,1.25,0,0,0-1.85.28,1.45,1.45,0,0,0,.5,1.9Z"/><path class="i" d="M91,135.76l2.81.62c.46.1.87.2,1.27.32v0c-.28-.31-.55-.64-.85-1l-1.81-2.23.49-.78L96,136.83l-.44.71-5.08-1Z"/><path class="i" d="M92.69,130.4a.53.53,0,0,1,.17.77.52.52,0,0,1-.74.16.55.55,0,1,1,.57-.93Zm4.76,4.1L93.34,132l.46-.75,4.11,2.55Z"/><path class="i" d="M94.84,125.23l5,3.08c.36.23.78.47,1.08.62l-.41.67-.74-.41v0a1.79,1.79,0,0,1-.06,1.9,2.21,2.21,0,0,1-3.18.47,2.33,2.33,0,0,1-1.07-3.22,1.61,1.61,0,0,1,1.39-.85l0,0L94.38,126Zm3.14,3a2.16,2.16,0,0,0-.34-.17,1.31,1.31,0,0,0-1.53.55c-.48.78-.09,1.66.81,2.22a1.56,1.56,0,0,0,2.29-.28,1.32,1.32,0,0,0-.22-1.64,1.22,1.22,0,0,0-.3-.24Z"/><path class="i" d="M100,126.11a1.55,1.55,0,0,0,2.3-.52,3.32,3.32,0,0,0,.49-1.27l.61.2a3.89,3.89,0,0,1-.58,1.53,2.26,2.26,0,0,1-3.33.74,2.35,2.35,0,0,1-1-3.31,2,2,0,0,1,3-.49,1.48,1.48,0,0,1,.33.24Zm.82-2.52a1.25,1.25,0,0,0-1.85.28,1.43,1.43,0,0,0,.5,1.9Z"/><path class="i" d="M101.29,121.6c-.43-.26-.78-.46-1.13-.65l.41-.66.7.38v0a1.79,1.79,0,0,1,.07-1.84,1.76,1.76,0,0,1,2.65-.36l2.45,1.52-.46.74-2.37-1.47c-.66-.41-1.37-.5-1.81.19a1.28,1.28,0,0,0,.15,1.49,1.37,1.37,0,0,0,.31.26l2.48,1.54-.46.74Z"/><path class="i" d="M108.88,115.72a3.36,3.36,0,0,1-.5,1.33,2.3,2.3,0,0,1-3.37.75,2.47,2.47,0,0,1-.82-3.57,2.76,2.76,0,0,1,.86-.9l.47.52a2.17,2.17,0,0,0-.74.75,1.83,1.83,0,0,0,3.09,1.94,2.56,2.56,0,0,0,.37-1Z"/><path class="i" d="M107.88,113.38a1.53,1.53,0,0,0,2.29-.52,3.44,3.44,0,0,0,.5-1.27l.61.19a3.77,3.77,0,0,1-.59,1.54,2.25,2.25,0,0,1-3.32.74,2.34,2.34,0,0,1-1-3.31,2,2,0,0,1,3-.5,2.3,2.3,0,0,1,.33.25Zm.81-2.52a1.24,1.24,0,0,0-1.84.28,1.45,1.45,0,0,0,.49,1.9Z"/><polygon class="k" points="286.68 175.82 85.67 175.82 69.28 203.82 304.03 203.82 286.68 175.82"/><path class="j" d="M144.72,191v.16c0,1.42-.57,2.81-2.42,2.81s-2.59-1.28-2.59-4.08.61-4.09,2.6-4.09a2.15,2.15,0,0,1,2.37,2.47v.14h-1.26v-.13c0-.73-.22-1.56-1.12-1.53s-1.34.57-1.34,3.1.42,3.17,1.34,3.17,1.17-1.16,1.17-1.89V191Z"/><path class="j" d="M149.41,192.59c0,.22.13.42.31.42a.5.5,0,0,0,.19,0v.77a1.5,1.5,0,0,1-.58.14c-.53,0-1-.21-1-.78h0a1.55,1.55,0,0,1-1.48.87c-.94,0-1.54-.53-1.54-1.66a1.63,1.63,0,0,1,1.38-1.86l.92-.26c.43-.12.7-.24.7-.75s-.19-.88-.82-.88c-.79,0-.9.56-.9,1.13h-1.12c0-1.26.51-1.95,2.08-1.95,1,0,1.88.41,1.88,1.45Zm-1.12-1.89a8.54,8.54,0,0,1-1.32.55,1,1,0,0,0-.49,1c0,.49.24.89.74.89.71,0,1.07-.54,1.07-1.41Z"/><path class="j" d="M153.17,189.63v-.15c0-.48-.17-.91-.78-.91s-.85.22-.85.76.21.65.84.87l.76.27a1.6,1.6,0,0,1,1.28,1.7c0,1.27-.92,1.81-2.12,1.81-1.5,0-2-.69-2-1.84v-.22h1.06v.19c0,.68.24,1,.92,1s1-.33,1-.87a.85.85,0,0,0-.65-.86l-1-.35a1.56,1.56,0,0,1-1.26-1.7c0-1.11.8-1.63,2-1.63,1.51,0,1.85.88,1.85,1.62v.26Z"/><path class="j" d="M156.33,191v.34c0,.79.1,1.8,1,1.8s.94-1,.94-1.32h1.12A2,2,0,0,1,157.3,194c-1,0-2.16-.29-2.16-3,0-1.55.33-3.2,2.19-3.2,1.65,0,2.09,1,2.09,2.64V191Zm1.9-.82v-.31c0-.75-.24-1.32-.91-1.32s-1,.74-1,1.51v.12Z"/><path class="j" d="M160.32,190.08h2.88v1.13h-2.88Z"/><path class="j" d="M168.26,191.67c-.08,1.42-.56,2.31-2,2.31-1.72,0-2.2-1.28-2.2-3.12s.48-3.11,2.2-3.11a1.9,1.9,0,0,1,2,2.12h-1.19c0-.55-.15-1.26-.84-1.24-.86,0-1,.93-1,2.23s.16,2.24,1,2.24c.66,0,.9-.54.9-1.43Z"/><path class="j" d="M171.12,187.75c1.73,0,2.21,1.28,2.21,3.11s-.56,3.12-2.21,3.12-2.2-1.28-2.2-3.12S169.4,187.75,171.12,187.75Zm0,5.35c.87,0,1-.73,1-2.24,0-1.3-.15-2.23-1-2.23s-1,.93-1,2.23C170.11,192.37,170.26,193.1,171.12,193.1Z"/><path class="j" d="M174.24,187.91h1.13v.69h0a1.7,1.7,0,0,1,1.52-.85c.9,0,1.47.41,1.47,1.61v4.46H177.2v-4.06c0-.77-.23-1.06-.82-1.06s-.95.38-.95,1.15v4h-1.19Z"/><path class="j" d="M179,187.91h.81v-1.69H181v1.69h1v.88h-1v3.53c0,.46.13.62.54.62a2.54,2.54,0,0,0,.43,0v.88a3.82,3.82,0,0,1-1,.1c-.8,0-1.2-.22-1.2-1.43v-3.67H179Z"/><path class="j" d="M182.59,187.91h1.19v.92h0a1.48,1.48,0,0,1,1.38-1.08.93.93,0,0,1,.28,0V189a2.29,2.29,0,0,0-.49-.06c-.54,0-1.19.24-1.19,1.34v3.54h-1.19Z"/><path class="j" d="M188,187.75c1.72,0,2.21,1.28,2.21,3.11S189.68,194,188,194s-2.2-1.28-2.2-3.12S186.31,187.75,188,187.75Zm0,5.35c.87,0,1-.73,1-2.24,0-1.3-.15-2.23-1-2.23s-1,.93-1,2.23C187,192.37,187.17,193.1,188,193.1Z"/><path class="j" d="M191.21,186h1.18v7.85h-1.18Z"/><path class="j" d="M193.65,186h1.19v7.85h-1.19Z"/><path class="j" d="M197.06,191v.34c0,.79.1,1.8,1,1.8s.94-1,.94-1.32h1.12A2,2,0,0,1,198,194c-1,0-2.17-.29-2.17-3,0-1.55.33-3.2,2.19-3.2,1.65,0,2.09,1,2.09,2.64V191Zm1.9-.82v-.31c0-.75-.24-1.32-.91-1.32s-1,.74-1,1.51v.12Z"/><path class="j" d="M204.15,193.1h0a1.27,1.27,0,0,1-1.3.88c-1.38,0-1.94-1.16-1.94-3.19,0-2.63.93-3,1.83-3a1.37,1.37,0,0,1,1.34.85h0V186h1.18v7.85h-1.12Zm-1.08-4.4c-.68,0-.92.55-.92,2.14,0,1.34.18,2.19,1,2.19s1-.83,1-2.1C204.15,189.51,204,188.7,203.07,188.7Z"/><path class="j" d="M211.61,189.63v-.15c0-.48-.17-.91-.78-.91s-.85.22-.85.76.21.65.84.87l.76.27a1.6,1.6,0,0,1,1.28,1.7c0,1.27-.92,1.81-2.12,1.81-1.5,0-2-.69-2-1.84v-.22h1.06v.19c0,.68.24,1,.92,1s1-.33,1-.87a.85.85,0,0,0-.65-.86l-1-.35a1.56,1.56,0,0,1-1.26-1.7c0-1.11.8-1.63,2-1.63,1.51,0,1.85.88,1.85,1.62v.26Z"/><path class="j" d="M213.21,187.91H214v-1.69h1.19v1.69h1v.88h-1v3.53c0,.46.13.62.54.62a2.42,2.42,0,0,0,.42,0v.88a3.69,3.69,0,0,1-1,.1c-.81,0-1.2-.22-1.2-1.43v-3.67h-.82Z"/><path class="j" d="M219.83,193.13h0a1.69,1.69,0,0,1-1.52.85c-.88,0-1.47-.41-1.47-1.94v-4.13H218v4.24c0,.66.3.88.8.88a.93.93,0,0,0,1-1v-4.13H221v5.91h-1.12Z"/><path class="j" d="M225.12,193.1h0a1.26,1.26,0,0,1-1.29.88c-1.39,0-1.94-1.16-1.94-3.19,0-2.63.92-3,1.83-3a1.38,1.38,0,0,1,1.34.85h0V186h1.19v7.85h-1.12ZM224,188.7c-.68,0-.93.55-.93,2.14,0,1.34.18,2.19,1,2.19s1-.83,1-2.1C225.12,189.51,225,188.7,224,188.7Z"/><path class="j" d="M227.44,185.88h1.19v1.19h-1.19Zm0,2h1.19v5.91h-1.19Z"/><path class="j" d="M230.85,191v.34c0,.79.1,1.8,1,1.8s.94-1,.94-1.32h1.12a2,2,0,0,1-2.07,2.14c-1,0-2.17-.29-2.17-3,0-1.55.33-3.2,2.19-3.2,1.65,0,2.09,1,2.09,2.64V191Zm1.9-.82v-.31c0-.75-.24-1.32-.91-1.32s-1,.74-1,1.51v.12Z"/><path class="j" d="M237.47,189.63v-.15c0-.48-.17-.91-.78-.91s-.85.22-.85.76.21.65.84.87l.76.27a1.6,1.6,0,0,1,1.28,1.7c0,1.27-.92,1.81-2.12,1.81-1.5,0-1.95-.69-1.95-1.84v-.22h1.06v.19c0,.68.24,1,.92,1s1-.33,1-.87a.85.85,0,0,0-.65-.86l-1-.35a1.56,1.56,0,0,1-1.26-1.7c0-1.11.8-1.63,2-1.63,1.51,0,1.85.88,1.85,1.62v.26Z"/><polygon class="l" points="253.61 120.95 122.5 120.95 52 231.41 321.92 231.21 253.61 120.95"/><line class="m" x1="267.35" y1="44.48" x2="268.35" y2="44.48"/><line class="n" x1="272.41" y1="44.48" x2="282.59" y2="44.48"/><line class="o" x1="284.62" y1="44.48" x2="300.9" y2="44.48"/><line class="m" x1="302.93" y1="44.48" x2="303.93" y2="44.48"/><polygon class="l" points="189.38 16.84 129.25 110.71 247.54 110.71 189.38 16.84"/><path class="a" d="M167.33,69.35v.2c0,1,.42,1.44,1.29,1.44a1.12,1.12,0,0,0,1.19-1.15,1.32,1.32,0,0,0-1.13-1.39l-.85-.3A2.09,2.09,0,0,1,166.19,66a2.15,2.15,0,0,1,2.44-2.22c2,0,2.22,1.26,2.22,2.07V66H169.6v-.17a1,1,0,0,0-1.1-1.13,1,1,0,0,0-1.06,1.13c0,.67.34,1,1.18,1.33l.85.31a2,2,0,0,1,1.59,2.08c0,1.67-1,2.37-2.59,2.37a2.16,2.16,0,0,1-2.39-2.4v-.19Z"/><path class="a" d="M172.79,65.86l1,4.45h0l.95-4.45H176L174.39,72c-.46,1.62-.84,1.83-2.06,1.81a3.91,3.91,0,0,1-.48,0v-.94a2.45,2.45,0,0,0,.39,0c.4,0,.67-.09.8-.46l.15-.49-1.68-6Z"/><path class="a" d="M179.23,67.59v-.15c0-.48-.16-.92-.78-.92-.47,0-.84.22-.84.77s.2.65.83.87l.76.27a1.6,1.6,0,0,1,1.29,1.7c0,1.27-.93,1.81-2.13,1.81-1.49,0-1.94-.7-1.94-1.84v-.22h1.05v.19c0,.68.25,1.05.93,1.05s1-.33,1-.87a.88.88,0,0,0-.65-.87l-1-.34a1.58,1.58,0,0,1-1.27-1.7c0-1.11.81-1.63,2-1.63,1.5,0,1.85.88,1.85,1.62v.26Z"/><path class="a" d="M180.84,65.86h.81V64.18h1.19v1.68h1v.88h-1v3.53c0,.47.13.63.54.63a2.46,2.46,0,0,0,.43,0v.88a4.22,4.22,0,0,1-1,.1c-.8,0-1.2-.22-1.2-1.43V66.74h-.81Z"/><path class="a" d="M185.45,69v.34c0,.79.1,1.8,1,1.8s.94-1,.94-1.32h1.13a2,2,0,0,1-2.08,2.14c-1,0-2.17-.29-2.17-3,0-1.55.33-3.2,2.19-3.2,1.65,0,2.09,1,2.09,2.64V69Zm1.9-.82v-.32c0-.75-.24-1.32-.91-1.32s-1,.75-1,1.52v.12Z"/><path class="a" d="M189.57,65.86h1.13v.7h0a1.66,1.66,0,0,1,1.42-.85,1.27,1.27,0,0,1,1.37.9,1.62,1.62,0,0,1,1.5-.9c.84,0,1.44.43,1.44,1.57v4.5h-1.19V67.72c0-.77-.23-1.07-.71-1.07s-.95.39-.95,1.16v4h-1.19V67.72c0-.77-.23-1.07-.72-1.07s-.94.39-.94,1.16v4h-1.19Z"/><path class="a" d="M201.54,70.55c0,.22.13.42.31.42a.4.4,0,0,0,.2,0v.77a1.37,1.37,0,0,1-.58.15c-.53,0-1-.21-1-.78h0a1.54,1.54,0,0,1-1.47.87c-.95,0-1.54-.53-1.54-1.67a1.61,1.61,0,0,1,1.37-1.85l.93-.26c.43-.12.69-.24.69-.76s-.19-.88-.81-.88c-.8,0-.91.56-.91,1.14h-1.12c0-1.26.52-2,2.08-2,1.05,0,1.88.41,1.88,1.45Zm-1.12-1.89a8.54,8.54,0,0,1-1.32.55,1,1,0,0,0-.48,1c0,.5.24.89.73.89.72,0,1.07-.53,1.07-1.4Z"/><path class="a" d="M202.22,65.86H203V64.18h1.18v1.68h1v.88h-1v3.53c0,.47.14.63.54.63a2.46,2.46,0,0,0,.43,0v.88a4.19,4.19,0,0,1-.95.1c-.81,0-1.2-.22-1.2-1.43V66.74h-.82Z"/><path class="a" d="M205.86,63.84h1.19V65h-1.19Zm0,2h1.19v5.92h-1.19Z"/><path class="a" d="M212.24,69.62c-.07,1.42-.56,2.32-2,2.32-1.72,0-2.2-1.28-2.2-3.12s.48-3.11,2.2-3.11a1.91,1.91,0,0,1,2,2.12h-1.19c0-.55-.16-1.26-.85-1.24-.86,0-1,.92-1,2.23s.15,2.23,1,2.23c.66,0,.9-.53.9-1.43Z"/><path class="a" d="M164.09,79.06h1.19V80h0a1.46,1.46,0,0,1,1.37-1.08,1.06,1.06,0,0,1,.29,0v1.21a2.51,2.51,0,0,0-.5-.06c-.54,0-1.18.24-1.18,1.34V85h-1.19Z"/><path class="a" d="M168.51,82.18v.34c0,.79.1,1.8,1,1.8s.94-1,.94-1.32h1.13a2,2,0,0,1-2.08,2.14c-1,0-2.17-.29-2.17-3,0-1.55.33-3.2,2.19-3.2,1.65,0,2.09,1,2.09,2.64v.63Zm1.9-.82V81c0-.75-.24-1.32-.91-1.32s-1,.75-1,1.52v.12Z"/><path class="a" d="M172.08,79.06h1.28l1,4.67h0l.93-4.67h1.27L175.05,85h-1.38Z"/><path class="a" d="M177.32,77h1.19v1.19h-1.19Zm0,2h1.19V85h-1.19Z"/><path class="a" d="M180.73,82.18v.34c0,.79.1,1.8,1,1.8s.95-1,.95-1.32h1.12a2,2,0,0,1-2.08,2.14c-1,0-2.17-.29-2.17-3,0-1.55.33-3.2,2.19-3.2,1.65,0,2.09,1,2.09,2.64v.63Zm1.9-.82V81c0-.75-.24-1.32-.91-1.32s-1,.75-1,1.52v.12Z"/><path class="a" d="M184.39,79.06h1.24l.82,4.67h0l.88-4.67h1.34l.88,4.67h0l.81-4.67h1.19L190.25,85h-1.34l-.92-4.6h0l-.85,4.6h-1.39Z"/><path class="a" d="M194.89,80.79v-.15c0-.48-.17-.92-.78-.92s-.85.22-.85.77.21.65.83.87l.76.27a1.6,1.6,0,0,1,1.29,1.7c0,1.27-.92,1.81-2.12,1.81-1.5,0-2-.7-2-1.84v-.22h1.06v.19c0,.68.24,1,.92,1s1-.33,1-.87a.87.87,0,0,0-.65-.87l-1-.34a1.57,1.57,0,0,1-1.26-1.7c0-1.11.8-1.63,2-1.63,1.51,0,1.85.88,1.85,1.62v.26Z"/><path class="a" d="M203.54,83.75c0,.22.14.42.31.42a.37.37,0,0,0,.2,0v.77a1.33,1.33,0,0,1-.58.15c-.53,0-1-.21-1-.78h0a1.54,1.54,0,0,1-1.47.87c-.95,0-1.54-.53-1.54-1.67a1.61,1.61,0,0,1,1.37-1.85l.93-.26c.43-.12.69-.24.69-.76s-.19-.88-.81-.88c-.79,0-.9.56-.9,1.14h-1.13c0-1.26.52-2,2.08-2,1.05,0,1.88.41,1.88,1.45Zm-1.12-1.89a8.54,8.54,0,0,1-1.32.55,1,1,0,0,0-.48,1c0,.5.24.89.73.89.72,0,1.07-.53,1.07-1.4Z"/><path class="a" d="M204.75,79.06h1.13v.7h0a1.7,1.7,0,0,1,1.52-.85c.9,0,1.47.41,1.47,1.6V85h-1.19V80.92c0-.77-.23-1.07-.82-1.07s-.95.39-.95,1.16v4h-1.19Z"/><path class="a" d="M213.07,84.25h0a1.27,1.27,0,0,1-1.3.89c-1.39,0-1.94-1.16-1.94-3.19,0-2.63.93-3,1.83-3a1.37,1.37,0,0,1,1.34.85h0V77.13h1.19V85h-1.12ZM212,79.85c-.68,0-.92.55-.92,2.15,0,1.34.17,2.19,1,2.19s1-.84,1-2.1C213.07,80.67,212.9,79.85,212,79.85Z"/><path class="a" d="M158.6,92.26h1.13V93h0a1.66,1.66,0,0,1,1.42-.85,1.28,1.28,0,0,1,1.37.9,1.62,1.62,0,0,1,1.5-.9c.84,0,1.44.43,1.44,1.57v4.5H164.3V94.12c0-.77-.23-1.07-.71-1.07s-1,.39-1,1.16v4h-1.19V94.12c0-.77-.23-1.07-.72-1.07s-.94.39-.94,1.16v4H158.6Z"/><path class="a" d="M167.71,95.38v.34c0,.79.1,1.8,1,1.8s1-1,1-1.32h1.12a2,2,0,0,1-2.08,2.14c-1,0-2.17-.29-2.17-3,0-1.55.33-3.2,2.19-3.2,1.65,0,2.09,1,2.09,2.64v.63Zm1.9-.82v-.32c0-.74-.24-1.32-.91-1.32s-1,.75-1,1.52v.12Z"/><path class="a" d="M171.25,92.26h.82V90.58h1.19v1.68h1v.88h-1v3.53c0,.47.13.63.53.63a2.46,2.46,0,0,0,.43,0v.88a4.19,4.19,0,0,1-.95.1c-.81,0-1.2-.22-1.2-1.43V93.14h-.82Z"/><path class="a" d="M178.72,97c0,.22.13.42.31.42a.4.4,0,0,0,.2,0v.77a1.33,1.33,0,0,1-.58.15c-.53,0-1-.21-1-.78h0a1.54,1.54,0,0,1-1.47.87c-1,0-1.54-.53-1.54-1.67A1.61,1.61,0,0,1,176,94.82l.93-.26c.43-.12.69-.24.69-.76s-.19-.88-.81-.88c-.8,0-.91.56-.91,1.14h-1.12c0-1.26.52-2,2.08-2,1,0,1.88.41,1.88,1.45Zm-1.12-1.89a8.54,8.54,0,0,1-1.32.55,1,1,0,0,0-.48,1c0,.5.24.9.73.9.72,0,1.07-.54,1.07-1.41Z"/><path class="a" d="M179.86,94.44h2.88v1.12h-2.88Z"/><path class="a" d="M187.69,97c0,.22.13.42.31.42a.36.36,0,0,0,.19,0v.77a1.33,1.33,0,0,1-.58.15c-.53,0-1-.21-1-.78h0a1.55,1.55,0,0,1-1.48.87c-.94,0-1.54-.53-1.54-1.67A1.61,1.61,0,0,1,185,94.82l.92-.26c.43-.12.69-.24.69-.76s-.18-.88-.81-.88c-.79,0-.9.56-.9,1.14h-1.12c0-1.26.51-2,2.08-2,1,0,1.88.41,1.88,1.45Zm-1.13-1.89a8,8,0,0,1-1.31.55,1,1,0,0,0-.49,1c0,.5.24.9.74.9.71,0,1.06-.54,1.06-1.41Z"/><path class="a" d="M188.9,92.26H190V93h0a1.7,1.7,0,0,1,1.52-.85c.9,0,1.48.41,1.48,1.6v4.47h-1.19V94.12c0-.77-.23-1.07-.83-1.07s-.94.39-.94,1.16v4H188.9Z"/><path class="a" d="M198.07,97c0,.22.13.42.31.42a.4.4,0,0,0,.2,0v.77a1.42,1.42,0,0,1-.59.15c-.52,0-1-.21-1-.78h0a1.54,1.54,0,0,1-1.47.87c-.95,0-1.54-.53-1.54-1.67a1.61,1.61,0,0,1,1.37-1.85l.93-.26c.42-.12.69-.24.69-.76s-.19-.88-.82-.88c-.79,0-.9.56-.9,1.14h-1.12c0-1.26.52-2,2.08-2,1,0,1.88.41,1.88,1.45ZM197,95.06a8.54,8.54,0,0,1-1.32.55,1,1,0,0,0-.49,1c0,.5.25.9.74.9.72,0,1.07-.54,1.07-1.41Z"/><path class="a" d="M199.34,90.33h1.18v7.85h-1.18Z"/><path class="a" d="M202.51,92.26l1,4.45h0l.95-4.45h1.24l-1.63,6.14c-.46,1.62-.85,1.83-2.07,1.81a3.75,3.75,0,0,1-.47,0v-.94a2.45,2.45,0,0,0,.39,0c.4,0,.67-.09.8-.46l.15-.49-1.68-6Z"/><path class="a" d="M209,94v-.15c0-.48-.16-.92-.78-.92-.47,0-.85.22-.85.77s.21.65.84.87l.76.27a1.6,1.6,0,0,1,1.29,1.7c0,1.27-.93,1.81-2.13,1.81-1.5,0-2-.7-2-1.84v-.22h1.06v.19c0,.68.24,1,.92,1s1-.33,1-.87a.87.87,0,0,0-.65-.87l-1-.34a1.57,1.57,0,0,1-1.27-1.7c0-1.11.8-1.63,2-1.63,1.51,0,1.85.88,1.85,1.62V94Z"/><path class="a" d="M212.12,95.38v.34c0,.79.1,1.8,1,1.8s.94-1,.94-1.32h1.13a2,2,0,0,1-2.08,2.14c-1,0-2.17-.29-2.17-3,0-1.55.33-3.2,2.19-3.2,1.65,0,2.09,1,2.09,2.64v.63Zm1.9-.82v-.32c0-.74-.24-1.32-.91-1.32s-1,.75-1,1.52v.12Z"/><path class="a" d="M218.74,94v-.15c0-.48-.17-.92-.78-.92s-.85.22-.85.77.21.65.84.87l.76.27a1.59,1.59,0,0,1,1.28,1.7c0,1.27-.92,1.81-2.12,1.81-1.5,0-2-.7-2-1.84v-.22H217v.19c0,.68.24,1,.92,1s1-.33,1-.87a.87.87,0,0,0-.65-.87l-1-.34a1.57,1.57,0,0,1-1.27-1.7c0-1.11.8-1.63,2-1.63,1.51,0,1.85.88,1.85,1.62V94Z"/><polyline class="b" points="268.1 120.86 355.72 120.86 355.72 231.21 327.49 231.21"/><rect class="a" x="322.32" y="157.81" width="37.07" height="33.45"/><path class="i" d="M317.37,166v4c0,1.5.67,2.14,1.58,2.14s1.64-.66,1.64-2.14v-4h.87v3.93c0,2.07-1.09,2.92-2.55,2.92s-2.41-.79-2.41-2.88v-4Z"/><path class="i" d="M322.94,169.22c0-.51,0-.91,0-1.31h.77l.05.8h0a1.76,1.76,0,0,1,1.59-.91c.67,0,1.71.4,1.71,2.06v2.89h-.88V170c0-.78-.29-1.44-1.11-1.44a1.27,1.27,0,0,0-1.19.91,1.53,1.53,0,0,0-.06.4v2.92h-.87Z"/><path class="i" d="M328.57,172.75v-4.17h-.67v-.67h.67v-.27a1.94,1.94,0,0,1,2.11-2.1,2.39,2.39,0,0,1,1.23.32l-.24.67a1.89,1.89,0,0,0-1-.28c-.92,0-1.2.65-1.2,1.42v.24h2.82v4.84h-.88v-4.17h-1.93v4.17Z"/><path class="i" d="M333.72,165.65h.87v7.1h-.87Z"/><path class="i" d="M337.13,166.52v1.39h1.26v.67h-1.26v2.6c0,.61.17.95.67.95a1.52,1.52,0,0,0,.5-.07l0,.67a2.11,2.11,0,0,1-.78.12,1.23,1.23,0,0,1-.95-.37,1.86,1.86,0,0,1-.34-1.26v-2.64h-.75v-.67h.75v-1.16Z"/><path class="i" d="M339.82,170.49a1.54,1.54,0,0,0,1.65,1.68,3.31,3.31,0,0,0,1.34-.25l.16.62a3.94,3.94,0,0,1-1.62.31,2.26,2.26,0,0,1-2.38-2.44,2.36,2.36,0,0,1,2.28-2.61,2,2,0,0,1,2,2.28,2.15,2.15,0,0,1,0,.41Zm2.57-.63a1.25,1.25,0,0,0-1.21-1.43,1.44,1.44,0,0,0-1.35,1.43Z"/><path class="i" d="M344.33,169.42c0-.57,0-1.06,0-1.51h.77l0,1h0a1.46,1.46,0,0,1,1.35-1.06.93.93,0,0,1,.24,0v.82l-.3,0a1.23,1.23,0,0,0-1.18,1.12,2.73,2.73,0,0,0,0,.41v2.59h-.88Z"/><path class="i" d="M348,170.49a1.54,1.54,0,0,0,1.65,1.68,3.31,3.31,0,0,0,1.34-.25l.15.62a3.85,3.85,0,0,1-1.61.31,2.26,2.26,0,0,1-2.38-2.44,2.36,2.36,0,0,1,2.28-2.61,2,2,0,0,1,2,2.28,2.15,2.15,0,0,1,0,.41Zm2.57-.63a1.25,1.25,0,0,0-1.21-1.43,1.44,1.44,0,0,0-1.35,1.43Z"/><path class="i" d="M356.69,165.65v5.85c0,.43,0,.91,0,1.25H356l-.05-.84h0a1.77,1.77,0,0,1-1.64,1,2.21,2.21,0,0,1-2.08-2.46,2.33,2.33,0,0,1,2.18-2.6,1.59,1.59,0,0,1,1.45.74h0v-2.89Zm-.88,4.23a2.43,2.43,0,0,0,0-.38,1.31,1.31,0,0,0-1.28-1c-.91,0-1.45.8-1.45,1.86s.49,1.8,1.44,1.8a1.33,1.33,0,0,0,1.28-1.06,1.45,1.45,0,0,0,0-.37Z"/><path class="i" d="M309.85,178.55a.53.53,0,0,1-.56.54.52.52,0,0,1-.53-.54.55.55,0,1,1,1.09,0Zm-1,6.2v-4.84h.87v4.84Z"/><path class="i" d="M311.21,181.22c0-.51,0-.91,0-1.31h.77l.05.8h0a1.76,1.76,0,0,1,1.59-.91c.67,0,1.71.4,1.71,2.06v2.89h-.88V182c0-.78-.29-1.44-1.11-1.44a1.27,1.27,0,0,0-1.19.91,1.2,1.2,0,0,0-.06.4v2.92h-.87Z"/><path class="i" d="M316.84,184.75v-4.17h-.67v-.67h.67v-.23a2.32,2.32,0,0,1,.56-1.69,1.7,1.7,0,0,1,1.18-.45,2,2,0,0,1,.75.14l-.12.68a1.28,1.28,0,0,0-.56-.11c-.74,0-.94.66-.94,1.4v.26h1.17v.67h-1.16v4.17Z"/><path class="i" d="M323.92,182.28a2.37,2.37,0,0,1-2.4,2.58,2.31,2.31,0,0,1-2.33-2.49,2.37,2.37,0,0,1,2.4-2.57A2.29,2.29,0,0,1,323.92,182.28Zm-3.83.06c0,1.06.61,1.86,1.46,1.86s1.48-.79,1.48-1.89c0-.81-.42-1.85-1.46-1.85S320.09,181.42,320.09,182.34Z"/><path class="i" d="M325,181.42c0-.57,0-1.06,0-1.51h.77l0,1h0a1.46,1.46,0,0,1,1.35-1.06.93.93,0,0,1,.24,0v.82l-.3,0a1.23,1.23,0,0,0-1.18,1.12,2.73,2.73,0,0,0,0,.41v2.59H325Z"/><path class="i" d="M328.35,181.22c0-.51,0-.91,0-1.31h.76l.05.78h0a1.67,1.67,0,0,1,1.53-.89,1.43,1.43,0,0,1,1.36,1h0a2,2,0,0,1,.54-.63,1.67,1.67,0,0,1,1.07-.34c.64,0,1.59.42,1.59,2.1v2.85h-.86V182c0-.93-.34-1.49-1-1.49a1.16,1.16,0,0,0-1.05.79,1.56,1.56,0,0,0-.07.44v3h-.86v-2.9c0-.77-.34-1.33-1-1.33a1.23,1.23,0,0,0-1.1.88,1.49,1.49,0,0,0-.07.43v2.92h-.85Z"/><path class="i" d="M339.37,184.75l-.08-.61h0a1.8,1.8,0,0,1-1.48.72,1.38,1.38,0,0,1-1.47-1.39c0-1.17,1-1.81,2.9-1.8v-.1a1,1,0,0,0-1.1-1.12,2.32,2.32,0,0,0-1.26.36l-.2-.58a3,3,0,0,1,1.6-.43c1.48,0,1.84,1,1.84,2v1.81a7,7,0,0,0,.07,1.16Zm-.14-2.47c-1,0-2,.15-2,1.08a.78.78,0,0,0,.82.85,1.22,1.22,0,0,0,1.18-.81,1,1,0,0,0,0-.28Z"/><path class="i" d="M342.52,178.52v1.39h1.26v.67h-1.26v2.6c0,.61.17.95.67.95a1.52,1.52,0,0,0,.5-.07l0,.67a2.15,2.15,0,0,1-.78.12,1.23,1.23,0,0,1-.95-.37,1.86,1.86,0,0,1-.34-1.26v-2.64h-.75v-.67h.75v-1.16Z"/><path class="i" d="M345.76,178.55a.53.53,0,0,1-.56.54.52.52,0,0,1-.53-.54.55.55,0,1,1,1.09,0Zm-1,6.2v-4.84h.87v4.84Z"/><path class="i" d="M351.49,182.28a2.37,2.37,0,0,1-2.4,2.58,2.31,2.31,0,0,1-2.33-2.49,2.37,2.37,0,0,1,2.4-2.57A2.29,2.29,0,0,1,351.49,182.28Zm-3.83.06c0,1.06.61,1.86,1.46,1.86s1.48-.79,1.48-1.89c0-.81-.42-1.85-1.46-1.85S347.66,181.42,347.66,182.34Z"/><path class="i" d="M352.61,181.22c0-.51,0-.91,0-1.31h.77l.05.8h0a1.76,1.76,0,0,1,1.59-.91c.67,0,1.71.4,1.71,2.06v2.89h-.88V182c0-.78-.29-1.44-1.12-1.44a1.27,1.27,0,0,0-1.18.91,1.2,1.2,0,0,0-.06.4v2.92h-.87Z"/><line class="b" x1="165.01" y1="20.12" x2="168.68" y2="18.66"/><line class="b" x1="168.91" y1="22.56" x2="168.68" y2="18.66"/><line class="b" x1="28.94" y1="284.95" x2="25.04" y2="287.75"/><line class="b" x1="25.05" y1="287.8" x2="28.95" y2="290.6"/><line class="b" x1="343.67" y1="284.94" x2="347.57" y2="287.74"/><line class="b" x1="347.56" y1="287.8" x2="343.66" y2="290.6"/></svg>